<svg width="209" height="32" viewBox="0 0 209 32" fill="none" xmlns="http://www.w3.org/2000/svg">
<mask id="mask0_40000001_4810" style="mask-type:alpha" maskUnits="userSpaceOnUse" x="1" y="1" width="30" height="30">
<circle cx="14.6765" cy="14.6765" r="14.6765" transform="matrix(0.995509 0.0946684 0.0946684 -0.995509 0 29.2212)" fill="white"/>
</mask>
<g mask="url(#mask0_40000001_4810)">
<circle cx="14.6765" cy="14.6765" r="14.6765" transform="matrix(1 0 0 -1 1.32349 30.6765)" fill="#669D5B"/>
<path d="M7.91351 5.91514L10.6809 21.6098C10.7631 22.0757 11.2802 22.2627 12.0913 22.1197L14.7807 21.6454C15.5918 21.5024 16.0138 21.1499 15.9317 20.6839L13.1643 4.98928C13.0821 4.52335 12.565 4.3364 11.7539 4.47942L9.06446 4.95363C8.25337 5.09665 7.83135 5.4492 7.91351 5.91514Z" fill="#FFF3E9"/>
<path d="M16.8652 11.6371L19.5513 26.871C19.6311 27.3233 20.1468 27.5023 20.9579 27.3593L23.6473 26.8851C24.4584 26.7421 24.8818 26.3975 24.8021 25.9452L22.1159 10.7113C22.0362 10.259 21.5204 10.08 20.7093 10.223L18.0199 10.6972C17.2088 10.8402 16.7854 11.1849 16.8652 11.6371Z" fill="#FFF3E9"/>
<circle cx="14.6765" cy="14.6765" r="11.8523" transform="matrix(1 0 0 -1 1.32349 30.6765)" stroke="#669D5B" stroke-width="5.64835"/>
</g>
<path d="M114.372 3.25812H116.152C116.689 3.25812 117 3.56896 117 4.10585V22.756C117 23.2929 116.689 23.6037 116.152 23.6037H114.683C114.174 23.6037 113.948 23.3776 113.779 23.0103C113.552 22.5864 113.496 22.4169 113.383 22.1343C112.337 23.1516 110.84 24.0558 108.607 24.0558C104.793 24.0558 101.43 21.004 101.43 16.5393C101.43 11.6224 105.273 8.96619 108.494 8.96619C110.727 8.96619 112.394 9.87044 113.524 11.0007V4.10585C113.524 3.56896 113.835 3.25812 114.372 3.25812ZM109.173 21.0605C111.942 21.0605 113.637 18.9412 113.637 16.4827C113.637 14.0526 111.857 11.9898 109.173 11.9898C106.771 11.9898 104.708 14.0526 104.708 16.4827C104.708 18.9412 106.771 21.0605 109.173 21.0605Z" fill="#FEFAF7"/>
<path d="M94.0836 8.93794C97.4745 8.93794 99.7351 10.916 99.7351 15.8328V22.756C99.7351 23.2929 99.4243 23.6037 98.8874 23.6037H97.1071C96.5702 23.6037 96.2594 23.2929 96.2594 22.756V16.398C96.2594 13.1766 95.0443 11.9333 92.8685 11.9333C90.9752 11.9333 89.8732 13.1201 89.195 14.6743V22.756C89.195 23.2929 88.8841 23.6037 88.3472 23.6037H86.567C86.0301 23.6037 85.7193 23.2929 85.7193 22.756V10.3226C85.7193 9.78567 86.0301 9.47483 86.567 9.47483H88.1212C88.7711 9.47483 88.9689 9.8987 89.421 10.916C90.8057 9.55961 92.3598 8.93794 94.0836 8.93794Z" fill="#FEFAF7"/>
<path d="M80.5929 9.47483H82.3166C82.8535 9.47483 83.0231 9.78567 83.0231 10.3226V21.9082C83.0231 27.6163 80.056 31.7419 74.1784 31.7419C71.4657 31.7419 68.8377 30.5834 69.1203 29.5944L69.2898 28.3228C69.4311 27.6728 69.5724 27.3902 69.9397 27.3902C70.5897 27.3902 71.3809 28.5488 74.2067 28.5488C77.6541 28.5488 79.5191 26.7403 79.5474 22.3604V21.3148C79.5474 21.2018 79.4626 21.1735 79.4061 21.2583C78.304 23.4059 76.0434 23.9993 74.4892 23.9993C70.7875 23.9993 67.3683 20.9475 67.3683 16.5958C67.3683 12.018 70.7592 8.96619 74.8566 8.96619C76.5803 8.96619 78.191 9.53135 79.4343 10.916L79.5191 10.6334C79.8865 9.61612 79.943 9.47483 80.5929 9.47483ZM75.1109 20.9757C77.8519 20.9757 79.5756 18.9412 79.5756 16.4262C79.5756 14.0808 77.9084 11.9898 75.1109 11.9898C72.6242 11.9898 70.6179 14.0808 70.6179 16.4262C70.6179 18.8847 72.6242 20.9757 75.1109 20.9757Z" fill="#FEFAF7"/>
<path d="M55.351 22.756V4.67101C55.351 4.13411 55.6618 3.82327 56.1987 3.82327H57.979C58.5159 3.82327 58.8267 4.13411 58.8267 4.67101V22.756C58.8267 23.2929 58.5159 23.6037 57.979 23.6037H56.1987C55.6618 23.6037 55.351 23.2929 55.351 22.756Z" fill="#FEFAF7"/>
<path d="M50.2812 9.47483H52.0049C52.4005 9.47483 52.6548 9.72915 52.6548 10.1813V22.756C52.6548 23.2929 52.3722 23.6037 51.7223 23.6037H50.0551C49.5465 23.6037 49.3204 23.4342 49.1226 23.0103L48.6987 22.106C47.7662 23.1516 46.3251 23.9993 44.1775 23.9993C40.3062 23.9993 37 20.7214 37 16.4828C37 12.1028 40.4192 8.96619 44.3188 8.96619C46.4946 8.96619 48.0206 9.75741 49.0943 10.9725L49.3769 10.153C49.5747 9.64438 49.829 9.47483 50.2812 9.47483ZM44.6861 20.9757C47.5684 20.9757 49.2074 18.7999 49.2074 16.4262C49.2074 14.1656 47.6249 11.9898 44.6861 11.9898C42.1712 11.9898 40.2497 14.1656 40.2497 16.4545C40.2497 18.7999 42.1712 20.9757 44.6861 20.9757Z" fill="#FEFAF7"/>
<path d="M61.5092 5.91426C61.5092 7.07283 62.4417 8.00533 63.6003 8.00533C64.7588 8.00533 65.6631 7.07283 65.6631 5.91426C65.6631 4.75569 64.7588 3.82318 63.6003 3.82318C62.4417 3.82318 61.5092 4.75569 61.5092 5.91426Z" fill="#FEFAF7"/>
<path d="M62.3003 9.54727C62.7062 9.69216 63.1437 9.7718 63.6001 9.77188C64.054 9.77188 64.4861 9.69345 64.8852 9.55215C65.1678 9.67523 65.3247 9.94178 65.3247 10.3227V22.7563C65.3246 23.2929 65.0137 23.6038 64.477 23.6039H62.6968C62.16 23.6039 61.8492 23.293 61.8491 22.7563V10.3227C61.8491 9.93641 62.0101 9.66796 62.3003 9.54727Z" fill="#FEFAF7"/>
</svg>
