<svg width="298" height="298" viewBox="0 0 298 298" fill="none" xmlns="http://www.w3.org/2000/svg">
<rect width="298" height="298" fill="white"/>
<path d="M237.354 247C239.73 234.435 239.965 221.743 239.907 209C239.84 194.126 236.942 179.599 234.741 165.017C230.444 136.548 220.249 110.17 205.468 85.432C200.135 76.5072 196.006 66.7587 188.296 59.5624C174.942 47.0995 159.521 43.2057 141.306 47.2873C120.904 51.8588 106.175 63.5483 95.4623 80.5682C81.0398 103.482 71.7167 128.534 65.7407 154.974C61.0399 175.772 58.1031 196.731 58.0009 218.001C57.9569 227.163 59.5248 236.333 60.3456 245.501C60.4097 246.217 60.1856 247.057 61.3539 247" stroke="black" stroke-width="2" stroke-linecap="round" stroke-linejoin="round"/>
<path d="M198.354 241C198.732 235.489 199.683 230.049 199.977 224.507C200.377 216.957 199.885 209.462 199.251 202.009C198.07 188.106 196.735 174.189 193.836 160.504C190.35 144.044 185.381 128.095 175.82 114.023C163.706 96.1943 146.399 94.6839 130.418 109.568C120.987 118.351 115.399 129.813 110.345 141.496C104.036 156.08 99.793 171.342 98.0498 187.022C96.0973 204.585 94.3711 222.303 97.34 240.002C97.4488 240.651 97.3539 241.333 97.3539 242" stroke="black" stroke-width="2" stroke-linecap="round" stroke-linejoin="round"/>
<path d="M179.354 84.0001C168.525 73.8491 155.719 69.776 141.396 73.6546C127.288 77.4749 117.777 87.5915 109.805 99.4673C95.7762 120.367 87.0562 143.444 83.0583 168.033C79.0317 192.798 77.1747 217.86 79.9943 242.984C80.1272 244.168 79.2997 246.25 81.3541 247" stroke="black" stroke-width="2" stroke-linecap="round" stroke-linejoin="round"/>
<path d="M180.354 240C180.468 232.49 181.771 225.044 181.375 217.499C180.296 196.945 177.483 176.784 168.35 158.002C166.335 153.856 164.115 149.813 160.84 146.514C154.055 139.681 144.083 139.513 136.852 145.998C128.225 153.736 123.296 163.775 119.934 174.525C113.983 193.547 113.146 213.236 113.354 233" stroke="black" stroke-width="2" stroke-linecap="round" stroke-linejoin="round"/>
<path d="M187.354 93C194.758 104.474 200.859 116.63 205.292 129.521C211.814 148.487 215.417 168.19 217.687 188.019C220.038 208.56 219.38 229.175 214.795 249.487C214.604 250.331 214.966 251.834 213.354 252" stroke="black" stroke-width="2" stroke-linecap="round" stroke-linejoin="round"/>
</svg>
