<svg width="298" height="298" viewBox="0 0 298 298" fill="none" xmlns="http://www.w3.org/2000/svg">
<rect width="298" height="298" fill="white"/>
<path d="M178.024 188C167.506 189.555 156.75 189.669 146.529 193.015C134.174 197.058 121.176 196.909 108.523 198.996C99.8652 200.424 91.2353 202.208 84.0719 207.564C74.9558 214.38 75.8774 222.898 86.0279 228.493C102.936 237.812 121.027 238.746 139.507 235.406C148.204 233.834 156.796 233.938 165.529 234.412C172.93 234.813 180.238 233.539 187.544 232.1C196.463 230.343 205.217 228.139 213.497 224.439C220.428 221.342 226.331 216.96 226.989 208.497C227.544 201.357 224.093 196.652 215.538 192.967C207.366 189.448 198.748 188.473 190.022 188.032C186.199 187.84 182.357 188 178.524 188" stroke="black" stroke-width="2" stroke-linecap="round" stroke-linejoin="round"/>
<path d="M144.024 139C136.024 139.667 128.014 140.233 120.026 141.022C105.926 142.415 91.9684 144.289 80.0102 152.981C70.8992 159.604 67.1804 173.805 76.1042 181.911C81.157 186.502 87.8973 187.857 94.5221 189.01C106.394 191.077 118.22 189.783 130.02 188.466C147.892 186.47 164.497 179.673 181.51 174.454C185.521 173.223 189.227 171.189 192.527 168.505C200.017 162.413 198.937 151.339 190.632 146.801C183.254 142.77 175.52 140.983 167.511 140.119C159.901 139.299 152.224 138.569 144.524 139" stroke="black" stroke-width="2" stroke-linecap="round" stroke-linejoin="round"/>
<path d="M152.024 106C144.578 107.28 137.073 107.721 129.529 108.104C121.665 108.503 113.624 108.486 106.499 112.96C100.667 116.622 99.5092 119.104 101.46 124.025C102.628 126.969 104.879 128.008 107.511 129.033C117.886 133.07 128.756 132.839 139.517 132.347C146.03 132.048 152.53 132.357 159.023 131.985C166.211 131.573 173.442 131.612 180.526 130.011C184.042 129.216 187.169 127.731 190.043 125.525C195.187 121.578 194.045 113.853 188.604 110.855C181.419 106.896 173.69 106.802 166.017 106.077C161.556 105.655 157.024 106 152.524 106" stroke="black" stroke-width="2" stroke-linecap="round" stroke-linejoin="round"/>
<path d="M125.024 61C117.573 62.3683 109.874 61.6857 102.507 63.9456C97.8633 65.3702 93.5422 67.1356 89.4701 69.9212C81.1096 75.6403 81.6003 87.4157 92.4522 93.136C99.3399 96.7667 106.546 98.8725 114.033 99.3663C130.373 100.444 146.76 100.911 163.027 98.0165C168.605 97.0238 174.092 95.4268 178.436 91.892C183.939 87.4137 185.647 81.9297 179.989 75.5307C173.923 68.6693 165.448 66.0593 156.996 64.1227C146.694 61.7624 136.098 61.2172 125.524 61" stroke="black" stroke-width="2" stroke-linecap="round" stroke-linejoin="round"/>
</svg>
