<svg width="298" height="298" viewBox="0 0 298 298" fill="none" xmlns="http://www.w3.org/2000/svg">
<rect width="298" height="298" fill="white"/>
<path d="M174.969 84.8067C162.361 74.6885 145.536 76.0915 131.027 84.4079C112.917 94.7883 103.254 111.628 98.6015 131.338C95.5529 144.254 94.9667 157.42 96.2646 170.826C97.6421 185.056 99.8139 198.916 104.913 212.328C109.483 224.346 116.53 233.633 129.983 235.716C139.896 237.251 150.075 238.628 159.936 236.175C174.436 232.569 183.132 222.052 188.37 208.768C194.04 194.387 195.785 179.106 197.59 163.821C199.537 147.326 197.187 131.465 192.426 115.82C189.327 105.637 184.652 96.1819 177.969 87.8067" stroke="black" stroke-width="2" stroke-linecap="round" stroke-linejoin="round"/>
<path d="M161.969 102.807C152.223 95.2162 140.831 97.9624 129.996 105.347C115.451 115.259 109.603 129.948 107.389 146.796C105.185 163.56 105.53 180.055 110.482 196.303C113.927 207.608 119.423 217.569 131 222.229C146.196 228.346 159.773 221.78 168.508 207.33C178.023 191.591 181.89 174.379 181.324 156.311C180.813 139.986 177.594 124.178 168.131 110.197C167.126 108.712 165.236 107.795 164.969 105.807" stroke="black" stroke-width="2" stroke-linecap="round" stroke-linejoin="round"/>
<path d="M145.469 25.3067C128.291 27.6775 113.673 35.3308 99.863 45.6653C79.5175 60.8912 70.8218 82.3086 65.5051 105.815C61.8985 121.761 60.6712 138.027 61.073 154.304C61.7332 181.052 67.2089 206.91 79.6472 230.713C86.7431 244.293 95.9167 256.636 109.952 264.337C118.716 269.146 128.24 271.688 137.977 272.107C149.857 272.617 161.775 273.129 173.522 268.958C192.674 262.158 205.751 249.607 212.949 230.799C221.365 208.808 226.28 185.891 230.434 162.8C232.346 152.177 234.272 141.559 235.558 130.817C237.135 117.641 234.624 105.279 229.447 93.316C223.381 79.2967 216.459 65.7409 207.487 53.2937C196.297 37.7701 181.099 28.645 162.445 25.447C157.102 24.531 151.469 25.3067 145.969 25.3067" stroke="black" stroke-width="2" stroke-linecap="round" stroke-linejoin="round"/>
<path d="M153.969 52.8066C126.203 55.8944 108.867 73.3695 95.5786 95.8715C89.1109 106.823 84.7557 118.816 81.9563 131.304C79.9061 140.449 80.5408 149.684 81.5761 158.794C83.3893 174.75 85.2757 190.751 89.5309 206.29C92.9633 218.823 97.882 230.91 106.603 240.687C113.208 248.092 122.035 252.569 131.971 254.292C166.36 260.255 195.788 237.582 203.515 206.818C208.655 186.358 212.81 165.689 215.283 144.785C217.262 128.045 213.596 111.712 206.845 96.361C202.069 85.4985 196.651 74.9275 188.051 66.2252C178.676 56.7382 167.469 52.7559 154.469 52.8066" stroke="black" stroke-width="2" stroke-linecap="round" stroke-linejoin="round"/>
</svg>
