<svg width="298" height="298" viewBox="0 0 298 298" fill="none" xmlns="http://www.w3.org/2000/svg">
<rect width="298" height="298" fill="white"/>
<path d="M244 179.5C239.693 171.91 236.396 163.78 231.537 156.475C229.464 153.358 227.295 150.655 223.517 149.446C220.442 148.461 218.828 145.851 217.475 143.012C211.031 129.486 204.524 115.988 197.982 102.509C196.455 99.3618 195.272 95.862 191.04 94.3349C186.44 97.1309 185.893 102.457 183.984 106.993C181.318 113.327 179.831 120.101 176.145 126.089C174.727 128.392 173.598 128.779 171.505 127.988C167.862 126.612 165.872 128.17 164.46 131.483C162.796 135.389 160.782 139.143 159.024 143.011C158.258 144.697 158.062 146.708 155.693 147.618C154.791 144.732 153.882 141.87 153.002 138.999C146.388 117.415 138.379 96.2386 133.983 74.0034C133.78 72.9776 133.627 71.6625 132.942 71.067C131.267 69.6111 132.277 65.914 129.002 66.057C126.082 66.1846 125.532 68.967 124.522 71.0108C117.313 85.5987 109.797 100.078 104.659 115.553C103.368 119.443 99.9601 120.666 98 123.5" stroke="black" stroke-width="2" stroke-linecap="round" stroke-linejoin="round"/>
<path d="M165 172.5C158.9 168.163 153.061 167.982 147.458 173.457C146.944 173.959 145.84 173.857 144.606 174.123C141.66 170.83 140.398 166.491 138.482 162.509C136.268 157.908 134.029 153.267 130.473 149.526C126.197 145.03 122.67 144.935 118.011 149.012C113.346 153.095 109.503 157.908 106.009 163.582C100.462 157.117 100.476 147.624 92.6864 142.224C88.5953 146.707 85.0763 151.097 83.025 156.51C81.4006 160.796 79.9648 165.155 78.5087 169.503C76.531 175.408 74.1654 180.914 69.071 185.087C64.5153 188.819 62.0004 194.428 59.6869 199.584C53.7356 212.848 44.5797 222.319 31 227.5" stroke="black" stroke-width="2" stroke-linecap="round" stroke-linejoin="round"/>
<path d="M91 135.5C90.9238 131.636 89.0861 128.328 87.4402 125.03C86.0444 122.233 84.6571 122.165 82.5176 124.516C78.4153 129.023 76.1589 134.647 73.5338 140.016C70.3904 146.446 67.5231 153.011 64.4774 159.489C63.9717 160.565 63.3783 161.789 62.4672 162.455C53.502 169.004 49.3936 178.743 45.5822 188.532C42.5284 196.375 37.7406 202.622 31 207.5" stroke="black" stroke-width="2" stroke-linecap="round" stroke-linejoin="round"/>
<path d="M207 179.5C202.441 172.967 200.042 165.301 195.981 158.511C194.94 156.77 193.678 155.158 192.498 153.502C189.157 148.812 186.033 148.69 183.065 153.54C180.74 157.341 179 161.5 177 165.5" stroke="black" stroke-width="2" stroke-linecap="round" stroke-linejoin="round"/>
<path d="M222 221.5C217.988 217.973 214.645 213.855 209.6 211.303C205.025 208.988 204.661 202.867 201.53 198.976C198.516 195.231 196.678 190.26 191 189.5" stroke="black" stroke-width="2" stroke-linecap="round" stroke-linejoin="round"/>
<path d="M233 206.5C235.594 210.948 239.877 212.907 244.483 214.547C247.339 215.563 250.537 216.954 251.865 219.568C255.145 226.023 260.725 229.094 267 231.5" stroke="black" stroke-width="2" stroke-linecap="round" stroke-linejoin="round"/>
<path d="M170 176.5C174.9 179.911 177.173 185.373 180.449 190.036C181.725 191.852 182.648 193.852 185 194.5" stroke="black" stroke-width="2" stroke-linecap="round" stroke-linejoin="round"/>
<path d="M248 185.5C251.153 191.964 256.72 195.644 263 198.5" stroke="black" stroke-width="2" stroke-linecap="round" stroke-linejoin="round"/>
</svg>
