<svg width="298" height="298" viewBox="0 0 298 298" fill="none" xmlns="http://www.w3.org/2000/svg">
<rect width="298" height="298" fill="white"/>
<path d="M158 40.5C156.833 51.3333 155.774 62.1796 154.473 72.9968C152.748 87.3431 150.835 101.667 148.998 116C148.678 118.501 148.333 121 148 123.5" stroke="black" stroke-width="3" stroke-linecap="round" stroke-linejoin="round"/>
<path d="M244 150.5C221.335 151.694 198.612 151.766 175.997 153.967C175.022 154.061 174 153.667 173 153.5" stroke="black" stroke-width="3" stroke-linecap="round" stroke-linejoin="round"/>
<path d="M188 54.5C178.333 77 168.661 99.4974 159.018 122.008C158.544 123.114 158.333 124.333 158 125.5" stroke="black" stroke-width="2" stroke-linecap="round" stroke-linejoin="round"/>
<path d="M113 58.5C117.57 66.3385 119.677 75.1663 122.927 83.5284C128.198 97.0896 133 110.833 138 124.5" stroke="black" stroke-width="2" stroke-linecap="round" stroke-linejoin="round"/>
<path d="M220 63.5C215.508 70.6902 209.341 76.5338 203.865 82.8835C192.02 96.6183 181.036 111.03 169.524 125.02C168.456 126.318 167.718 127.885 166 128.5" stroke="black" stroke-width="2" stroke-linecap="round" stroke-linejoin="round"/>
<path d="M119 148.5C105.167 146.5 91.3317 144.511 77.5006 142.496C69.6637 141.353 61.8333 140.167 54 139" stroke="black" stroke-width="2" stroke-linecap="round" stroke-linejoin="round"/>
<path d="M119.5 162C105.5 166.5 91.5074 171.023 77.497 175.491C70.0138 177.877 62.5 180.167 55 182.5" stroke="black" stroke-width="2" stroke-linecap="round" stroke-linejoin="round"/>
<path d="M161 184.5C170.833 205.667 180.667 226.833 190.5 248" stroke="black" stroke-width="2" stroke-linecap="round" stroke-linejoin="round"/>
<path d="M137 185.5C129.667 206.167 122.326 226.831 115.034 247.512C114.815 248.132 114.714 248.547 114 248.5" stroke="black" stroke-width="2" stroke-linecap="round" stroke-linejoin="round"/>
<path d="M236 113.5C215.5 122.667 195 131.833 174.5 141" stroke="black" stroke-width="2" stroke-linecap="round" stroke-linejoin="round"/>
<path d="M234.5 178C220.913 174.035 207.292 170.206 193.505 166.979C187.642 165.606 181.833 164 176 162.5" stroke="black" stroke-width="2" stroke-linecap="round" stroke-linejoin="round"/>
<path d="M147 200.5C147.167 201.5 147.469 202.499 147.48 203.5C147.674 221.167 147.833 238.833 148 256.5" stroke="black" stroke-width="3" stroke-linecap="round" stroke-linejoin="round"/>
<path d="M121 187.5C107.5 204.833 94.0034 222.169 80.4812 239.485C80.1302 239.935 79.5 240.167 79 240.5" stroke="black" stroke-width="2" stroke-linecap="round" stroke-linejoin="round"/>
<path d="M68 118.5C85.6667 126.167 103.333 133.833 121 141.5" stroke="black" stroke-width="2" stroke-linecap="round" stroke-linejoin="round"/>
<path d="M121 169.5C106.667 178.333 92.3152 187.138 78.039 196.062C77.0412 196.686 76.0278 197.056 75 197.5" stroke="black" stroke-width="2" stroke-linecap="round" stroke-linejoin="round"/>
<path d="M138.5 78.5C139.5 89.1667 140.467 99.8366 141.517 110.498C141.912 114.509 142.5 118.5 143 122.5" stroke="black" stroke-width="2" stroke-linecap="round" stroke-linejoin="round"/>
<path d="M154 185.5C157 199.833 160 214.167 163 228.5" stroke="black" stroke-width="2" stroke-linecap="round" stroke-linejoin="round"/>
<path d="M108 82.5C116 96.8333 124 111.167 132 125.5" stroke="black" stroke-width="2" stroke-linecap="round" stroke-linejoin="round"/>
<path d="M132 184.5C125.167 197 118.318 209.492 111.539 222.021C111.139 222.76 110.903 223.403 110 223.5" stroke="black" stroke-width="2" stroke-linecap="round" stroke-linejoin="round"/>
<path d="M119 155.5C109.167 156.333 99.3353 157.191 89.4989 157.986C86.3394 158.242 83.1667 158.333 80 158.5" stroke="black" stroke-width="3" stroke-linecap="round" stroke-linejoin="round"/>
<path d="M166 180.5C173.667 190.167 181.369 199.805 188.953 209.537C189.862 210.704 190.563 211.937 192 212.5" stroke="black" stroke-width="2" stroke-linecap="round" stroke-linejoin="round"/>
<path d="M142 186.5C140.333 196.667 138.66 206.832 137.015 217.002C136.901 217.706 137.168 218.557 136 218.5" stroke="black" stroke-width="2" stroke-linecap="round" stroke-linejoin="round"/>
<path d="M207 139.5C196.833 142 186.667 144.5 176.5 147" stroke="black" stroke-width="2" stroke-linecap="round" stroke-linejoin="round"/>
<path d="M198 194.5C207.833 202 217.667 209.5 227.5 217" stroke="black" stroke-width="2" stroke-linecap="round" stroke-linejoin="round"/>
<path d="M175 167.5C183.282 172.602 192.137 176.56 201 180.5" stroke="black" stroke-width="2" stroke-linecap="round" stroke-linejoin="round"/>
<path d="M123 174.5C115.47 182.346 107.133 189.312 99 196.5" stroke="black" stroke-width="2" stroke-linecap="round" stroke-linejoin="round"/>
<path d="M76 71.5C83.3333 79.5 90.6667 87.5 98 95.5" stroke="black" stroke-width="2" stroke-linecap="round" stroke-linejoin="round"/>
<path d="M101 98.5C106 104.5 111 110.5 116 116.5" stroke="black" stroke-width="2" stroke-linecap="round" stroke-linejoin="round"/>
<path d="M87 107.5C92.6667 111.833 98.3333 116.167 104 120.5" stroke="black" stroke-width="2" stroke-linecap="round" stroke-linejoin="round"/>
<path d="M171.5 174C177 178.167 182.5 182.333 188 186.5" stroke="black" stroke-width="2" stroke-linecap="round" stroke-linejoin="round"/>
<path d="M108 123.5C112.728 128.148 118.641 131.427 123 136.5" stroke="black" stroke-width="2" stroke-linecap="round" stroke-linejoin="round"/>
<path d="M186 122.5C180.667 126.833 175.333 131.167 170 135.5" stroke="black" stroke-width="2" stroke-linecap="round" stroke-linejoin="round"/>
<path d="M208 104.5C203 108.5 198 112.5 193 116.5" stroke="black" stroke-width="2" stroke-linecap="round" stroke-linejoin="round"/>
<path d="M118.5 120C121.167 123 123.833 126 126.5 129" stroke="black" stroke-width="3" stroke-linecap="round" stroke-linejoin="round"/>
</svg>
