<svg width="298" height="298" viewBox="0 0 298 298" fill="none" xmlns="http://www.w3.org/2000/svg">
<rect width="298" height="298" fill="white"/>
<path d="M68.2737 154.5C64.4047 153.633 62.2839 156.641 59.8089 158.546C51.1662 165.197 43.895 173.22 41.4091 184.031C37.5089 200.994 41.1515 215.963 59.3468 224.85C81.3622 235.604 103.732 234.184 125.805 224.069C128.425 222.869 130.748 221.374 132.737 219.462C139.842 212.632 138.653 204.851 129.761 200.024C121.66 195.626 113.056 196.148 104.261 197.409C97.4938 198.379 90.8236 200.034 83.7533 199.166C77.9119 198.449 73.7028 195.881 70.2844 191.492C65.0883 184.821 63.8689 167.392 69.2737 160" stroke="black" stroke-width="2" stroke-linecap="round" stroke-linejoin="round"/>
<path d="M257.774 246.5C250.64 237.343 249.56 227.138 251.641 215.975C252.988 208.752 254.318 201.487 254.367 194.001C254.52 170.85 244.803 159.148 225.267 151.517C218.068 148.705 210.847 146.249 204.691 141.099C195.647 133.535 193.071 124.116 194.785 113.002C195.891 105.826 197.788 98.7 198.142 91.4934C199.083 72.3611 190.583 58.4494 170.278 53.4822C149.821 48.4776 126.038 57.2461 113.977 73.1543C106.061 83.5957 102.701 93.5916 112.429 109.249C102.46 114.958 92.9894 121.339 85.7737 130.5" stroke="black" stroke-width="2" stroke-linecap="round" stroke-linejoin="round"/>
<path d="M150.774 187C164.521 180.031 175.413 170.191 179.674 154.972C187.333 127.616 172.961 104.058 141.773 103.031C139.614 102.96 137.381 102.557 135.274 103.5" stroke="black" stroke-width="2" stroke-linecap="round" stroke-linejoin="round"/>
<path d="M110.774 75.9999C101.909 72.0164 93.3594 73.6675 85.3066 78.0605C71.6046 85.5352 62.769 97.1261 58.2942 112.006C53.6808 127.347 58.7996 140.916 66.2736 154" stroke="black" stroke-width="2" stroke-linecap="round" stroke-linejoin="round"/>
<path d="M149.274 187C144.898 177.813 140.914 168.455 134.313 160.468C119.254 142.244 97.5949 139.762 77.8204 148.111C75.5745 149.059 73.2024 149.851 71.0708 151.775C68.1925 154.373 67.8877 157.276 69.406 159.406C82.2255 177.384 97.93 191.342 121.28 192.904C130.948 193.55 140.313 191.231 149.274 187.5" stroke="black" stroke-width="2" stroke-linecap="round" stroke-linejoin="round"/>
<path d="M150.274 188.5C156.349 199.346 163.228 209.675 174.324 215.911C188.785 224.038 203.831 222.392 218.76 216.963C222.186 215.717 225.44 214 228.774 212.5" stroke="black" stroke-width="2" stroke-linecap="round" stroke-linejoin="round"/>
<path d="M112.774 76C124.698 82.459 133.031 91.6258 135.304 105.495C136.019 109.858 136.628 114.333 132.219 116.906C127.518 119.65 122.915 117.532 118.821 114.926C116.88 113.69 115.44 111.667 113.774 110" stroke="black" stroke-width="2" stroke-linecap="round" stroke-linejoin="round"/>
<path d="M134.274 103C127.26 104.382 120.222 105.683 113.774 109" stroke="black" stroke-width="2" stroke-linecap="round" stroke-linejoin="round"/>
</svg>
