<svg width="298" height="298" viewBox="0 0 298 298" fill="none" xmlns="http://www.w3.org/2000/svg">
<rect width="298" height="298" fill="white"/>
<path d="M152 127.54C155.886 131.718 158.704 136.622 161.524 141.525C154.982 152.395 151.565 164.391 148.478 176.534C144.092 193.791 139.958 211.061 131.619 227.102C121.356 246.844 105.437 257.085 83.5002 258.543C81.332 258.687 79.1667 258.873 77 259.04" stroke="black" stroke-width="2" stroke-linecap="round" stroke-linejoin="round"/>
<path d="M225 42.5398C213.061 41.8005 202.309 44.6108 192.961 52.4938C185.221 59.0209 181.755 67.9127 179.096 77.0678C173.292 97.0525 163.885 114.767 149.041 129.581C133.761 144.831 124.266 163.576 116.296 183.458C110.935 196.832 105.706 210.773 93.4734 220.005C88.2768 223.927 82.5786 227.004 76 228.04" stroke="black" stroke-width="2" stroke-linecap="round" stroke-linejoin="round"/>
<path d="M162 142.54C168.995 153.71 170.451 166.632 173.481 179.044C180.409 207.42 197.257 226.848 225.003 236.53C226.645 237.103 228.333 237.54 230 238.04" stroke="black" stroke-width="2" stroke-linecap="round" stroke-linejoin="round"/>
<path d="M151 125.54C142.568 115.003 131.988 106.533 123.029 96.5141C115.755 88.3801 110.578 78.9075 105.927 69.0743C103.158 63.2196 100.195 57.3194 96.3848 52.1244C89.4758 42.7034 79.7039 38.5416 68 39.0399" stroke="black" stroke-width="2" stroke-linecap="round" stroke-linejoin="round"/>
<path d="M222 108.04C195.954 106.232 177.034 117.999 163.044 139.069C162.598 139.741 162.403 140.443 161.5 140.54" stroke="black" stroke-width="2" stroke-linecap="round" stroke-linejoin="round"/>
</svg>
