<svg width="298" height="298" viewBox="0 0 298 298" fill="none" xmlns="http://www.w3.org/2000/svg">
<rect width="298" height="298" fill="white"/>
<path d="M141.5 27.0022C134.073 28.0431 126.677 28.8737 119.457 31.3784C108.822 35.0677 102.739 43.3239 97.05 52.0349C90.031 62.7817 84.8108 74.2028 84.9282 87.5028C84.9747 92.7607 86.7798 97.1091 90.0139 100.99C97.0692 109.458 96.8068 115.335 91.9293 123.962C85.4526 135.418 76.0186 144.625 67.468 154.474C59.6875 163.436 57.2474 173.575 60.0315 184.994C61.1249 189.479 63.7567 192.867 67.99 195.022C82.4313 202.374 85.9361 209.738 81.0581 228.018C79.8827 232.422 78.5487 236.813 78.4513 241.501C78.1164 257.612 90.1323 270.404 107.008 271.363C115.537 271.847 122.829 267.463 129.474 262.467C136.342 257.303 143.409 252.389 151.535 249.605C160.994 246.363 170.607 247.432 179.997 250.511C196.578 255.948 210.029 250.558 221.49 238.493C244.711 214.051 243.03 174.266 224.074 152.438C220.189 147.965 215.392 144.685 210.875 141.163C203.474 135.392 201.727 127.813 202.647 119.518C203.69 110.117 206.729 101.017 207.555 91.507C208.849 76.6115 206.542 62.4641 198.909 49.5558C194.994 42.9342 188.412 39.1199 181.504 35.9933C168.942 30.3083 155.873 26.9016 142 27.0022" stroke="black" stroke-width="2" stroke-linecap="round" stroke-linejoin="round"/>
<path d="M147.5 131.002C133.882 133.829 128.642 144.762 125.295 156.089C122.612 165.173 120.035 174.345 117.551 183.516C115.351 191.638 116.866 197.094 121.994 201.01C127.129 204.932 132.555 203.994 137.99 201.976C141.916 200.519 145.799 198.986 150 198.5C156.529 197.744 162.082 200.543 167.466 203.564C170.817 205.444 174.209 207.025 178.003 207.477C189.637 208.863 194.075 200.924 195.004 191.503C196.623 175.092 188.832 163.968 174.96 156.577C169.341 153.583 165.819 149.114 163.533 143.489C160.645 136.384 156.294 131.292 148 131.002" stroke="black" stroke-width="2" stroke-linecap="round" stroke-linejoin="round"/>
<path d="M153 50.5022C143.638 52.2859 134.032 53.1204 125.493 57.9898C113.991 64.5484 106.925 74.011 106.026 87.504C105.739 91.8216 107.107 95.4883 110.444 98.5628C113.207 101.109 115.946 103.688 118.071 106.956C124.274 116.494 122.534 124.718 115.959 133.973C108.326 144.717 99.9672 154.973 93.5417 166.525C87.7953 176.857 88.9264 188.215 97.4312 195.581C103.02 200.422 103.298 207.244 101.914 213.985C101.243 217.253 99.536 220.295 98.528 223.511C96.6195 229.6 97.4638 235.105 102.503 239.498C107.05 243.463 112.364 243.212 117.461 241.394C122.123 239.73 125.62 236.097 129.011 232.513C134.517 226.694 140.758 222.112 148.999 220.995C154.754 220.216 160.202 221.348 165.499 223.504C171.672 226.016 177.577 229.363 184.5 229.503C200.95 229.836 214.542 220.514 218.784 201.454C222.11 186.511 220.572 171.778 210.543 158.968C205.908 153.048 199.476 149.573 193.466 145.553C178.9 135.811 176.537 129.185 181.975 112.494C184.769 103.917 188.091 95.5162 189.56 86.512C191.804 72.7562 187.044 60.2824 176.47 54.5575C169.349 50.7021 161.451 50.2029 153.5 50.5022" stroke="black" stroke-width="2" stroke-linecap="round" stroke-linejoin="round"/>
</svg>
