<svg width="298" height="298" viewBox="0 0 298 298" fill="none" xmlns="http://www.w3.org/2000/svg">
<rect width="298" height="298" fill="white"/>
<path d="M111.912 25C105.829 34.0414 100.187 43.4626 97.6277 54.052C95.9138 61.1432 97.8876 68.4043 101.392 75.0107C102.683 77.4446 103.628 80.0637 104.933 82.4888C110.139 92.1577 107.784 101.492 103.346 110.467C97.471 122.349 100.288 132.469 108.942 141.472C122.061 155.121 124.169 175.232 115.532 192.062C109.95 202.94 105.131 214.329 105.437 226.999C105.779 241.181 110.603 253.618 120.414 263.999C123.572 267.34 126.746 270.667 129.912 274" stroke="black" stroke-width="2" stroke-linecap="round" stroke-linejoin="round"/>
<path d="M188.912 23C191.202 25.9694 191.098 29.5759 191.371 33.0033C192.332 45.0641 189.254 56.3745 184.97 67.522C181.586 76.3261 179.193 85.3094 179.264 95.0011C179.342 105.456 182.967 114.386 188.965 122.461C198.883 135.815 202.591 150.574 200.459 167.006C199.546 174.047 197.196 180.654 194.298 186.947C188.911 198.642 188.626 210.257 193.451 221.984C200.116 238.187 201.614 254.446 194.912 271" stroke="black" stroke-width="2" stroke-linecap="round" stroke-linejoin="round"/>
<path d="M166.412 25C167.162 29.8046 167.408 34.6271 167.477 39.4991C167.618 49.4981 165.407 58.9127 161.423 68.0045C158.399 74.905 155.742 81.8572 154.803 89.4865C153.805 97.596 155.797 104.863 159.997 111.446C165.441 119.977 171.29 128.201 174.443 137.99C179.262 152.949 178.801 167.846 172.237 181.918C166.15 194.969 166.436 207.484 172.489 219.963C180.449 236.368 180.097 252.414 171.938 268.513C171.736 268.911 171.912 269.5 171.912 270" stroke="black" stroke-width="2" stroke-linecap="round" stroke-linejoin="round"/>
<path d="M131.412 50.5C135.355 64.042 134.462 77.1446 128.473 90.0281C123.915 99.8327 125.075 109.327 130.85 118.539C135.959 126.688 141.07 134.867 144.441 143.989C150.383 160.07 147.812 175.422 140.92 190.504C135.698 201.931 131.692 213.615 132.355 226.503C132.786 234.89 135.372 242.388 140.441 248.978C146.108 256.347 150.677 264.289 153.912 273" stroke="black" stroke-width="2" stroke-linecap="round" stroke-linejoin="round"/>
</svg>
