<svg width="298" height="298" viewBox="0 0 298 298" fill="none" xmlns="http://www.w3.org/2000/svg">
<rect width="298" height="298" fill="white"/>
<path d="M156.899 140.5C156.857 136.209 153.866 134.172 150.4 134.191C146.811 134.211 143.285 135.409 141.317 139.46C137.712 146.879 140.497 153.685 148.323 158.621C156.869 164.011 171.371 160.055 175.403 146.501C179.233 133.625 172.874 118.612 156.87 114.618C135.516 109.289 116.768 126.753 115.416 145.001C113.998 164.123 121.993 177.859 139.412 185.972C155.313 193.378 174.743 188.557 186.429 178.535C211.293 157.213 204.957 113.165 175.49 97.3311C153.302 85.4087 125.249 92.3888 110.854 106.956C101.171 116.756 94.6887 127.907 91.2075 141.451C84.3467 168.143 97.3128 194.792 123.445 205.387C139.442 211.874 156.048 211.905 172.924 208.111C190.785 204.095 205.75 195.642 217.915 182.015C226.34 172.579 230.324 161.123 231.21 148.986C232.634 129.487 228.19 110.85 217.236 94.6101C206.123 78.1348 189.319 69.048 170.363 64.6567C151.414 60.2672 132.685 61.8772 114.898 70.4984C101.001 77.2344 90.3131 87.6097 81.3994 100C71.9448 113.143 66.8187 127.872 67.0049 143.999C67.2987 169.431 74.4376 192.609 92.982 210.916C104.551 222.337 119.159 228.503 134.902 231.987C147.613 234.801 160.419 236.008 173.401 234.013C182.47 232.62 191.219 230.03 199.356 225.915C209.871 220.597 220.232 214.881 227.899 205.5" stroke="black" stroke-width="2" stroke-linecap="round" stroke-linejoin="round"/>
</svg>
