<svg width="298" height="298" viewBox="0 0 298 298" fill="none" xmlns="http://www.w3.org/2000/svg">
<rect width="298" height="298" fill="white"/>
<path d="M186.111 209C175.293 213.125 163.829 214.587 152.594 216.919C139.667 219.602 126.657 221.992 113.589 223.848C107.961 224.648 102.216 224.867 96.6155 226.021C90.4627 227.288 84.6273 229.36 80.1295 234.018C77.298 236.95 77.2811 240.591 80.1331 243.478C84.8595 248.263 91.0884 250.732 97.1531 252.881C130.457 264.686 163.837 264.695 197.112 252.502C203.513 250.157 209.333 246.663 214.543 242.416C221.153 237.028 221.801 229.188 217.111 220.5" stroke="black" stroke-width="2" stroke-linecap="round" stroke-linejoin="round"/>
<path d="M169.111 162C160.615 165.54 151.444 166.335 142.603 168.469C126.295 172.405 109.57 174.605 93.6298 180.055C89.8367 181.352 86.2136 183.209 82.6365 185.049C80.6809 186.055 78.4144 187.289 78.6665 189.995C78.9275 192.796 81.5228 193.348 83.6262 193.947C87.2378 194.973 90.9044 196.035 94.6177 196.438C112.769 198.409 130.998 199.759 149.093 202.139C161.815 203.813 174.758 204.272 187.172 208.311C190.054 209.249 193.515 207.232 196.637 206.07C201.906 204.11 207.098 202.245 211.137 198.025C216.81 192.095 217.286 186.594 211.549 180.559C204.244 172.875 195.298 167.593 185.112 164.497C182.439 163.684 179.778 162.833 177.111 162" stroke="black" stroke-width="2" stroke-linecap="round" stroke-linejoin="round"/>
<path d="M197.111 136.5C187.959 130.675 177.581 128.929 167.105 128.073C146.523 126.393 126.377 129.222 106.614 135.008C102.855 136.109 99.4466 137.971 96.1019 139.985C91.4391 142.792 91.367 144.853 96.1225 147.479C101.857 150.646 108.373 150.897 114.622 151.937C132.784 154.962 151.193 156.494 169.111 161" stroke="black" stroke-width="2" stroke-linecap="round" stroke-linejoin="round"/>
<path d="M142.111 36C142.944 36.1682 143.821 36.2516 144.63 36.3822C148.132 36.947 151.107 38.3122 151.495 42.0121C151.873 45.6078 149.027 47.3379 146.173 49.0995C143.408 50.8056 139.902 50.9752 137.345 53.7596C140.461 56.5313 144.695 56.6343 148.145 58.435C151.714 60.2974 155.253 62.067 158.125 64.9867C163.571 70.5254 162.686 77.0027 155.576 79.9141C149.209 82.5211 142.558 84.8394 135.611 84.8647C130.827 84.8821 125.709 84.9438 120.883 81.0329C131.215 76.4853 141.144 77.8727 151.111 80" stroke="black" stroke-width="2" stroke-linecap="round" stroke-linejoin="round"/>
<path d="M199.111 138.5C202.74 145.224 201.228 148.78 193.657 153.572C188.451 156.867 182.405 158.046 177.111 161" stroke="black" stroke-width="2" stroke-linecap="round" stroke-linejoin="round"/>
<path d="M193.611 208C198.775 211.021 205.062 211.188 210.111 214.5" stroke="black" stroke-width="2" stroke-linecap="round" stroke-linejoin="round"/>
<path d="M176.111 161.5C174.111 161.259 172.111 162.701 170.111 161.5" stroke="black" stroke-width="3" stroke-linecap="round" stroke-linejoin="round"/>
<path d="M145.111 98.5001C136.737 99.7732 128.264 100.446 120.103 102.974C115.485 104.404 110.781 105.603 107.124 109.014C104.666 111.306 104.983 112.465 108.104 114.015C112.213 116.055 116.692 116.707 121.115 116.922C134.781 117.585 148.382 116.74 161.586 112.912C166.745 111.416 172.191 109.843 175.368 104.586C173.879 101.288 170.976 100.657 168.11 100.005C160.692 98.3189 153.151 98.4072 145.611 98.5001" stroke="black" stroke-width="2" stroke-linecap="round" stroke-linejoin="round"/>
</svg>
