<svg width="298" height="298" viewBox="0 0 298 298" fill="none" xmlns="http://www.w3.org/2000/svg">
<rect width="298" height="298" fill="white"/>
<path d="M267.707 114.257C259.455 118.94 252.943 126.117 244.675 130.699C223.829 142.254 203.433 141.338 183.7 127.767C176.642 122.913 170.09 117.408 163.761 111.696C151.469 100.602 136.908 94.7858 120.71 95.006C104.723 95.2234 89.7811 99.4846 79.6502 113.716C74.8766 120.422 70.6009 127.483 65.2293 133.776C55.3336 145.368 43.1528 152.422 27.7068 153.257" stroke="black" stroke-width="2" stroke-linecap="round" stroke-linejoin="round"/>
<path d="M179.707 151.256C172.038 145.129 166.174 137.076 158.217 131.242C144.428 121.133 129.637 115.495 112.194 119.703C100.774 122.458 92.4494 129.143 86.2288 138.771C83.2673 143.355 80.9382 148.395 77.6344 152.701C66.3007 167.472 51.5797 174.51 32.7068 171.256" stroke="black" stroke-width="2" stroke-linecap="round" stroke-linejoin="round"/>
<path d="M269.707 132.257C260.507 135.674 252.103 140.689 247.409 149.366C243.009 157.5 236.442 161.718 228.2 164.235C217.053 167.64 206.244 165.93 195.157 162.941C182.152 159.435 172.379 150.915 161.759 143.68C153.892 138.322 145.394 134.333 136.181 132.927C120.128 130.477 107.522 136.581 99.2407 150.776C96.6895 155.149 94.5518 159.763 92.2047 164.255C84.9697 178.105 73.8297 186.342 58.2256 188.873C51.0658 190.034 44.0146 191.637 36.7068 191.257" stroke="black" stroke-width="2" stroke-linecap="round" stroke-linejoin="round"/>
<path d="M259.707 164.257C253.427 169.099 248.584 175.479 241.772 179.858C225.32 190.436 208.349 190.477 190.703 183.766C181.678 180.334 173.409 175.35 164.707 171.257" stroke="black" stroke-width="2" stroke-linecap="round" stroke-linejoin="round"/>
<path d="M266.707 148.257C259.143 151.226 255.28 158.124 250.194 163.745C235.266 180.243 214.49 184.595 193.219 175.729C192.958 175.62 192.873 175.09 192.707 174.757" stroke="black" stroke-width="2" stroke-linecap="round" stroke-linejoin="round"/>
<path d="M228.207 169.756C218.028 174.725 207.117 174.481 196.207 174.257C186.929 174.067 178.961 169.736 170.696 166.283C162.839 163.002 155.428 158.766 147.234 156.17C136.954 152.914 126.873 153.004 116.707 156.256" stroke="black" stroke-width="2" stroke-linecap="round" stroke-linejoin="round"/>
<path d="M152.707 165.257C145.045 162.914 137.248 161.826 129.203 162.172C126.625 162.283 124.335 163.883 121.707 163.257" stroke="black" stroke-width="2" stroke-linecap="round" stroke-linejoin="round"/>
<path d="M71.7068 196.257C63.8095 200.073 55.5002 202.174 46.7068 202.257" stroke="black" stroke-width="2" stroke-linecap="round" stroke-linejoin="round"/>
<path d="M88.7068 181.257C85.7906 185.007 82.4573 188.34 78.7068 191.257" stroke="black" stroke-width="2" stroke-linecap="round" stroke-linejoin="round"/>
</svg>
