<svg width="298" height="298" viewBox="0 0 298 298" fill="none" xmlns="http://www.w3.org/2000/svg">
<rect width="298" height="298" fill="white"/>
<path d="M214.707 52.5C211.378 59.041 204.57 60.2194 198.67 62.4013C183.79 67.9047 167.992 69.9709 152.697 73.9624C144.143 76.1946 135.68 78.6687 127.733 82.5535C123.125 84.8058 117.897 87.2759 118.337 93.4908C118.804 100.072 125.044 101.159 129.755 102.867C136.951 105.474 144.615 106.48 152.208 107.488C170.471 109.913 188.883 111.407 206.71 116.489C214.512 118.714 221.85 121.729 228.237 126.963C239.603 136.277 238.18 150.315 227.761 159.562C221.781 164.869 214.837 168.259 207.712 171.512C191.206 179.048 173.723 183.88 156.694 189.963C147.867 193.116 139.412 197.041 131.236 201.552C127.025 203.875 123.739 207.4 121.226 211.512C116.732 218.864 119.512 226.143 128.705 231.503C140.301 238.265 153.333 240.088 166.203 242.517C177.414 244.634 188.832 245.64 199.736 249.414C204.883 251.195 209.598 253.458 213.707 257" stroke="black" stroke-width="2" stroke-linecap="round" stroke-linejoin="round"/>
<path d="M102.707 237C93.6316 233.511 85.475 228.973 81.172 219.516C78.1531 212.881 79.6162 207.092 84.2448 202.035C91.8543 193.72 102.026 189.549 112.21 185.509C129.026 178.838 146.602 174.261 163.211 167.01C169.506 164.262 175.478 161.129 180.759 156.56C190.337 148.274 190.083 137.468 178.795 130.36C170.354 125.046 160.987 123.285 151.692 121.061C136.173 117.347 120.064 116.641 104.698 112.028C99.6938 110.526 94.9381 108.758 90.6628 105.559C84.2115 100.731 83.3066 94.4552 88.713 88.5056C95.651 80.8708 104.797 76.9813 114.201 73.4833C130.9 67.2711 148.422 64.3687 165.705 60.4931C174.674 58.4817 183.672 56.4904 192.176 52.9261C195.038 51.7263 197.769 49.9365 200.144 47.9256C202.632 45.8192 202.129 43.2381 199.191 41.5263C195.979 39.6541 192.438 38.8632 188.707 38.9999" stroke="black" stroke-width="2" stroke-linecap="round" stroke-linejoin="round"/>
<path d="M74.7067 111C79.5027 118.465 87.3152 120.518 95.2032 122.514C110.054 126.272 125.422 127.377 140.226 131.431C145.731 132.938 150.937 134.919 155.697 138.015C161.57 141.834 162.307 148.259 157.723 153.514C152.213 159.832 144.781 162.866 137.189 165.448C123.418 170.132 109.49 174.353 95.7232 179.048C85.4265 182.56 75.6634 187.37 68.2774 195.564C58.4306 206.488 59.5322 220.2 68.7231 230.485C80.9513 244.17 97.041 251.098 114.216 255.968C120.921 257.869 127.755 259.276 134.707 260" stroke="black" stroke-width="2" stroke-linecap="round" stroke-linejoin="round"/>
</svg>
