<svg width="298" height="298" viewBox="0 0 298 298" fill="none" xmlns="http://www.w3.org/2000/svg">
<rect width="298" height="298" fill="white"/>
<path d="M74.0645 158.45C69.1188 166.752 65.3075 175.528 63.0674 184.95C58.5817 203.818 68.678 227.735 85.0322 238.001C97.492 245.822 110.919 250.083 125.562 250.993C135.868 251.632 145.877 250.629 155.564 246.95" stroke="black" stroke-width="2" stroke-linecap="round" stroke-linejoin="round"/>
<path d="M195.564 152.95C190.862 148.758 184.58 148.574 179.056 146.473C172.618 144.024 165.576 144.139 158.536 142.025C161.901 138.406 165.798 135.065 166.833 130.892C169.543 119.97 178.213 112.907 183.116 103.476C187.333 95.3648 191.714 87.4224 192.098 77.9511C192.496 68.1308 187.98 60.7953 179.991 56.0739C168.562 49.3191 155.936 45.4594 142.569 46.0614C122.712 46.9558 106.94 55.9193 96.8065 73.0926C94 77.8487 91.0949 83.6236 92.5645 89.9498" stroke="black" stroke-width="2" stroke-linecap="round" stroke-linejoin="round"/>
<path d="M194.064 214.45C193.325 206.037 191.717 197.82 188.404 189.796C180.517 194.058 171.883 196.856 163.042 197.715C154.703 198.526 146.236 196.357 141.175 188.875C132.599 176.193 120.581 174.685 107.068 176.97C99.2862 178.286 91.9739 180.423 87.5264 187.927C83.4098 194.872 84.5851 201.283 91.0535 205.965C98.3938 211.278 107.138 212.67 115.568 214.936C123.284 217.011 131.093 218.607 138.111 222.872C144.728 226.893 148.694 232.76 152.147 239.407C155.192 245.267 158.619 251.125 166.066 252.442C170.808 253.281 175.134 252.194 179.064 249.45" stroke="black" stroke-width="2" stroke-linecap="round" stroke-linejoin="round"/>
<path d="M219.064 166.95C224.828 161.051 230.196 154.757 232.988 146.922C237.799 133.421 234.192 121.433 225.027 110.983C216.971 101.797 206.387 96.4706 195.063 92.4536C193.573 91.9251 192.064 91.4497 190.564 90.9497" stroke="black" stroke-width="2" stroke-linecap="round" stroke-linejoin="round"/>
<path d="M172.564 117.95C170.965 113.84 172.34 109.565 172.314 105.448C172.216 90.2428 156.831 77.1491 143.072 74.8994C130.795 72.8918 119.476 75.4597 108.557 80.9349C95.344 87.56 83.2755 95.7072 74.1126 107.487C68.217 115.067 64.145 123.461 64.0007 133.449C63.8944 140.805 66.998 146.775 71.0998 152.424C72.2983 154.074 74.1878 155.23 74.5643 157.45" stroke="black" stroke-width="2" stroke-linecap="round" stroke-linejoin="round"/>
<path d="M219.064 169.45C226.158 176.859 228.901 186.093 229.493 195.954C230.326 209.831 227.846 223.148 221.022 235.426C219.819 237.591 218.064 239.45 216.564 241.45" stroke="black" stroke-width="2" stroke-linecap="round" stroke-linejoin="round"/>
<path d="M104.064 173.95C108.503 183.891 114.271 192.808 123.571 198.94C130.335 203.4 138.236 205.275 145.588 208.395C154.709 212.266 164.659 214.512 171.564 222.45C172.064 221.95 172.564 221.45 173.064 220.95" stroke="black" stroke-width="2" stroke-linecap="round" stroke-linejoin="round"/>
<path d="M159.564 142.95C159.564 143.283 159.614 143.625 159.557 143.948C157.012 158.438 158.368 161.328 171.582 167.914C178.522 171.373 182.698 177.026 185.59 183.939C186.248 185.512 187.231 186.95 188.064 188.45" stroke="black" stroke-width="2" stroke-linecap="round" stroke-linejoin="round"/>
<path d="M158.564 141.45C156.731 141.616 154.721 142.339 153.105 141.823C150.5 140.992 149.634 142.141 147.969 143.857C137.565 154.573 127.412 165.751 113.028 171.357C110.11 172.495 106.731 172.45 103.564 172.95" stroke="black" stroke-width="2" stroke-linecap="round" stroke-linejoin="round"/>
<path d="M217.064 166.95C208.8 158.765 202.623 154.697 195.78 153.288C199.264 161.387 202.634 169.115 204.064 177.45" stroke="black" stroke-width="2" stroke-linecap="round" stroke-linejoin="round"/>
<path d="M163.564 87.9497C157.849 89.0759 152.055 89.811 146.557 91.9301C136.416 95.8387 129.408 102.513 127.064 113.45" stroke="black" stroke-width="2" stroke-linecap="round" stroke-linejoin="round"/>
<path d="M204.064 180.45C206.855 193.067 203.018 204.27 195.828 214.28C194.27 216.448 194.917 220.065 191.564 220.95" stroke="black" stroke-width="2" stroke-linecap="round" stroke-linejoin="round"/>
<path d="M106.564 130.95C117.032 141.214 129.68 145.035 144.051 143.337C145.484 143.168 146.731 142.962 148.064 143.45" stroke="black" stroke-width="2" stroke-linecap="round" stroke-linejoin="round"/>
<path d="M105.065 131.45C98.1742 142.719 98.5188 154.72 101.622 166.935C102.088 168.77 103.207 170.441 103.065 172.45" stroke="black" stroke-width="2" stroke-linecap="round" stroke-linejoin="round"/>
<path d="M167.564 121.95C155.831 114.134 142.955 111.53 129.063 113.441C120.554 114.613 113.298 117.842 108.544 125.437C107.859 126.53 106.898 127.45 106.064 128.45" stroke="black" stroke-width="2" stroke-linecap="round" stroke-linejoin="round"/>
<path d="M126.564 114.45C126.663 129.289 136.418 136.113 148.564 140.95" stroke="black" stroke-width="2" stroke-linecap="round" stroke-linejoin="round"/>
<path d="M104.564 128.95C103.455 127.698 101.892 126.788 101.487 124.624C89.5182 132.325 82.256 143.857 75.0645 155.45" stroke="black" stroke-width="2" stroke-linecap="round" stroke-linejoin="round"/>
<path d="M212.564 245.45C203.607 253.389 190.234 254.467 181.564 248.95" stroke="black" stroke-width="2" stroke-linecap="round" stroke-linejoin="round"/>
<path d="M90.5645 93.4497C91.8774 101.621 92.0994 110.067 96.5669 117.448C97.8843 119.625 99.2311 121.783 100.564 123.95" stroke="black" stroke-width="2" stroke-linecap="round" stroke-linejoin="round"/>
<path d="M193.064 221.45C192.948 232.641 188.872 241.853 179.564 248.45" stroke="black" stroke-width="2" stroke-linecap="round" stroke-linejoin="round"/>
<path d="M75.5645 157.95C82.1062 164.465 89.1357 170.176 98.564 171.952C100.234 172.267 101.898 172.616 103.564 172.95" stroke="black" stroke-width="2" stroke-linecap="round" stroke-linejoin="round"/>
<path d="M216.564 168.95C208.434 176.79 198.865 182.688 189.564 188.95" stroke="black" stroke-width="2" stroke-linecap="round" stroke-linejoin="round"/>
<path d="M167.064 87.9499C174.377 87.5306 181.5 88.7373 188.564 90.4499" stroke="black" stroke-width="3" stroke-linecap="round" stroke-linejoin="round"/>
<path d="M191.064 221.95C183.531 232.566 174.415 241.137 161.578 244.994C160.477 245.325 159.564 246.283 158.564 246.95" stroke="black" stroke-width="2" stroke-linecap="round" stroke-linejoin="round"/>
<path d="M172.064 222.95C173.149 226.237 173.323 229.514 172.663 232.969C172.335 234.687 172.047 236.694 173.064 238.45" stroke="black" stroke-width="2" stroke-linecap="round" stroke-linejoin="round"/>
<path d="M170.064 124.45C176.332 127.184 180.125 132.677 184.564 137.45" stroke="black" stroke-width="2" stroke-linecap="round" stroke-linejoin="round"/>
<path d="M162.564 128.45C159.542 133.184 154.159 135.839 151.564 140.95" stroke="black" stroke-width="2" stroke-linecap="round" stroke-linejoin="round"/>
<path d="M112.564 119.45C108.228 118.721 105.74 122.099 102.564 123.95" stroke="black" stroke-width="2" stroke-linecap="round" stroke-linejoin="round"/>
<path d="M173.064 240.45C175.309 242.648 175.745 246.173 178.564 247.95" stroke="black" stroke-width="2" stroke-linecap="round" stroke-linejoin="round"/>
</svg>
