<svg width="298" height="298" viewBox="0 0 298 298" fill="none" xmlns="http://www.w3.org/2000/svg">
<rect width="298" height="298" fill="white"/>
<path d="M59.2067 136C52.183 147.944 43.7122 159.353 41.8164 173.515C39.6146 189.962 41.1594 198.796 55.3489 205.708C60.0225 207.985 62.1189 210.445 64.4551 214.869C72.3146 229.752 85.1024 238.691 101.706 242.005C111.711 244.002 121.756 243.192 131.693 241.894C141.548 240.607 150.931 242.557 160.178 245.104C172.83 248.589 185.477 251.861 198.703 250.949C218.592 249.576 235.081 242.187 244.691 223.492C247.344 218.331 247.945 212.55 249.125 206.983C249.973 202.983 252.978 200.291 254.33 196.544C260.536 179.343 255.162 164.133 246.594 149.566C243.81 144.832 240.536 140.144 235.707 137" stroke="black" stroke-width="2" stroke-linecap="round" stroke-linejoin="round"/>
<path d="M247.207 210.5C241.242 216.203 235.196 221.721 226.713 223.531C221.405 224.664 216.011 224.947 210.716 224.411C194.888 222.809 180.142 226.764 165.716 232.522C147.438 239.818 131.189 237.032 116.658 223.553C110.461 217.804 104.121 212.116 95.7194 209.46C88.2579 207.102 80.694 207.461 73.2316 208.655C69.5885 209.238 66.2068 207.665 62.7068 208.5" stroke="black" stroke-width="2" stroke-linecap="round" stroke-linejoin="round"/>
<path d="M217.207 96.0001C218.72 89.578 219.669 83.1676 218.762 76.4927C216.981 63.3926 208.775 56.1169 197.217 51.4751C180.706 44.8441 164.607 47.1957 148.721 53.5343C138.315 57.6862 128.141 62.4306 117.676 66.4189C108.854 69.7814 99.4367 69.3964 90.2192 68.8077C87.4729 68.6324 84.8522 69.073 82.2132 69.1712C79.8601 69.2588 78.0246 70.8746 76.578 73.427C69.7683 85.4429 67.9364 98.6706 66.1666 111.995C65.2841 118.639 64.1321 125.247 60.2431 131.025C58.5866 133.485 59.9183 135.954 60.6374 138.52C64.0819 150.809 63.1513 163.28 60.5463 175.466C58.2909 186.016 58.1273 196.214 61.2069 206.5" stroke="black" stroke-width="2" stroke-linecap="round" stroke-linejoin="round"/>
<path d="M234.707 157C230.207 152 225.287 147.311 221.302 141.93C214.715 133.036 212.456 122.978 215.166 111.99C215.931 108.889 216.751 105.643 216.613 102.504C216.002 88.6223 210.241 77.5706 198.23 69.963C187.998 63.4822 177.101 62.5248 165.719 65.5455C156.275 68.0518 146.984 68.2863 137.707 65.0001" stroke="black" stroke-width="2" stroke-linecap="round" stroke-linejoin="round"/>
<path d="M76.7067 72C68.0909 73.2112 64.0846 79.5086 60.7066 86.4999C53.4519 101.515 54.8015 116.718 59.7067 132" stroke="black" stroke-width="2" stroke-linecap="round" stroke-linejoin="round"/>
<path d="M128.207 61C111.657 52.494 93.2539 53.669 81.6865 67.4831C81.1577 68.1147 81.0207 68.5 81.7067 69" stroke="black" stroke-width="2" stroke-linecap="round" stroke-linejoin="round"/>
<path d="M236.707 159C245.214 171.16 250.402 184.382 249.733 199.501C249.697 200.325 249.278 201.319 250.207 202" stroke="black" stroke-width="2" stroke-linecap="round" stroke-linejoin="round"/>
<path d="M217.207 105.5C217.707 108 218.207 110.5 218.707 113" stroke="black" stroke-width="2" stroke-linecap="round" stroke-linejoin="round"/>
</svg>
