<svg width="298" height="298" viewBox="0 0 298 298" fill="none" xmlns="http://www.w3.org/2000/svg">
<rect width="298" height="298" fill="white"/>
<path d="M109 97.5C132 101.5 155.017 105.41 177.951 109.757C179.138 109.982 181.748 109.149 182.455 112.18C173.545 119.261 164.273 126.631 155 134C149.334 138.501 143.334 142.648 138.094 147.599C132.84 152.562 127.184 155.113 120 154" stroke="black" stroke-width="2" stroke-linecap="round" stroke-linejoin="round"/>
<path d="M114 40C136.075 46.3214 157.813 53.6152 180.488 62.2649C166.582 70.1139 153.884 77.1534 140.544 83.0979C130.821 87.4305 121.5 92.6666 112 97.5" stroke="black" stroke-width="2" stroke-linecap="round" stroke-linejoin="round"/>
<path d="M168 113C155.415 119.466 144.699 128.717 133.068 136.6C125.034 142.044 117.123 147.679 108.854 153.093C129.265 163.83 150.485 172.686 171.572 182.945C168.416 184.806 165.708 186.403 163 188" stroke="black" stroke-width="2" stroke-linecap="round" stroke-linejoin="round"/>
<path d="M130.5 154C144.536 161.305 159.094 167.488 173.49 174.021C179.125 176.578 184.652 179.37 190.754 182.308C169.963 195.942 149.783 209.175 129.367 222.563C143.901 234.786 157.531 246.896 172 258" stroke="black" stroke-width="2" stroke-linecap="round" stroke-linejoin="round"/>
<path d="M157 192C140.884 201.302 124.768 210.605 107.753 220.426C119.722 229.363 130.861 237.682 142 246" stroke="black" stroke-width="2" stroke-linecap="round" stroke-linejoin="round"/>
</svg>
